<svg width="21" height="21" viewBox="0 0 21 21" fill="none" xmlns="http://www.w3.org/2000/svg">
<path d="M9.10984 15.6468L14.5958 10.7572C14.7747 10.5982 14.8244 10.4094 14.7448 10.1907C14.6653 9.97207 14.5063 9.84287 14.2678 9.80312L9.97447 9.38571L12.5385 5.83775C12.5982 5.73837 12.6332 5.64376 12.6435 5.55391C12.6538 5.46407 12.6188 5.37979 12.5385 5.30108C12.459 5.2017 12.3597 5.15718 12.2404 5.16751C12.1211 5.17785 12.0118 5.22237 11.9124 5.30108L6.45633 10.1907C6.27744 10.3497 6.22774 10.5386 6.30725 10.7572C6.38676 10.9758 6.54577 11.105 6.78429 11.1448L11.0776 11.5622L8.48373 15.1102C8.4241 15.2095 8.39429 15.3038 8.39429 15.3928C8.39429 15.4819 8.43404 15.5665 8.51355 15.6468C8.59305 15.7271 8.68767 15.7669 8.79738 15.7661C8.9071 15.7653 9.01126 15.7255 9.10984 15.6468ZM10.5111 20.0296C9.39805 20.0296 8.34976 19.8555 7.36627 19.5072C6.38278 19.159 5.48317 18.6673 4.66744 18.032L3.02762 19.6718C2.90836 19.7911 2.77439 19.8805 2.62572 19.9402C2.47704 19.9998 2.3228 20.0296 2.16299 20.0296C1.82509 20.0296 1.54205 19.9151 1.31386 19.6861C1.08568 19.4572 0.971193 19.1741 0.970398 18.837C0.970398 18.678 1.00021 18.5242 1.05984 18.3755C1.11947 18.2268 1.20892 18.0924 1.32818 17.9724L2.96799 16.3326C2.33194 15.5176 1.8402 14.6184 1.49275 13.6349C1.14531 12.6514 0.971193 11.6027 0.970398 10.4889C0.970398 7.8254 1.89466 5.56942 3.74318 3.7209C5.59169 1.87238 7.84768 0.94812 10.5111 0.94812H20.0519V10.4889C20.0519 13.1523 19.1276 15.4083 17.2791 17.2568C15.4306 19.1053 13.1746 20.0296 10.5111 20.0296Z" fill="white"/>
</svg>
