<svg width="16" height="17" viewBox="0 0 16 17" fill="none" xmlns="http://www.w3.org/2000/svg">
<path d="M7.71285 12.4847C7.58448 12.4847 7.46414 12.4641 7.35182 12.4228C7.2395 12.3815 7.13521 12.3106 7.03893 12.2101L3.5731 8.61505C3.38055 8.41532 3.28813 8.18231 3.29583 7.91601C3.30353 7.64971 3.39595 7.4167 3.5731 7.21698C3.76564 7.01725 3.99445 6.9134 4.25952 6.90541C4.5246 6.89742 4.75309 6.99295 4.94499 7.19201L6.75011 9.06443V1.92428C6.75011 1.64134 6.84254 1.40434 7.02738 1.21327C7.21223 1.0222 7.44071 0.926328 7.71285 0.925663C7.98498 0.924997 8.21379 1.02086 8.39927 1.21327C8.58476 1.40567 8.67686 1.64267 8.67558 1.92428V9.06443L10.4807 7.19201C10.6732 6.99229 10.9021 6.89642 11.1671 6.90441C11.4322 6.9124 11.6607 7.01659 11.8526 7.21698C12.0291 7.4167 12.1215 7.64971 12.1299 7.91601C12.1382 8.18231 12.0458 8.41532 11.8526 8.61505L8.38676 12.2101C8.29049 12.3099 8.18619 12.3809 8.07387 12.4228C7.96155 12.4647 7.84121 12.4854 7.71285 12.4847ZM1.93645 16.9036C1.40695 16.9036 0.953822 16.7082 0.577073 16.3174C0.200324 15.9266 0.0116281 15.4563 0.0109863 14.9064V12.9091C0.0109863 12.6262 0.103409 12.3892 0.288253 12.1981C0.473098 12.007 0.701586 11.9112 0.973719 11.9105C1.24585 11.9098 1.47466 12.0057 1.66015 12.1981C1.84563 12.3905 1.93773 12.6275 1.93645 12.9091V14.9064H13.4892V12.9091C13.4892 12.6262 13.5817 12.3892 13.7665 12.1981C13.9514 12.007 14.1798 11.9112 14.452 11.9105C14.7241 11.9098 14.9529 12.0057 15.1384 12.1981C15.3239 12.3905 15.416 12.6275 15.4147 12.9091V14.9064C15.4147 15.4556 15.2263 15.926 14.8496 16.3174C14.4728 16.7089 14.0194 16.9043 13.4892 16.9036H1.93645Z" fill="#494747"/>
</svg>
