<svg width="24" height="24" viewBox="0 0 24 24" fill="none" xmlns="http://www.w3.org/2000/svg">
<path d="M8.375 11.4125C9.31775 11.3798 10.2097 10.9772 10.8578 10.2917C11.5058 9.60624 11.8578 8.6931 11.8375 7.75C11.8576 7.27613 11.7838 6.80296 11.6205 6.35768C11.4572 5.9124 11.2074 5.50379 10.8857 5.15532C10.5639 4.80685 10.1765 4.5254 9.74563 4.32713C9.31476 4.12886 8.84896 4.01769 8.375 4C7.89996 4.01608 7.43281 4.12607 7.00051 4.32362C6.5682 4.52118 6.17929 4.80238 5.85622 5.15102C5.53316 5.49965 5.28233 5.90881 5.11821 6.35488C4.95408 6.80096 4.87992 7.27512 4.9 7.75C4.88304 8.69427 5.23782 9.60739 5.88786 10.2925C6.53791 10.9776 7.43114 11.3799 8.375 11.4125ZM8.375 5.575C8.64336 5.59082 8.90588 5.65991 9.14725 5.77825C9.38863 5.89659 9.60402 6.06181 9.78088 6.26426C9.95774 6.46671 10.0925 6.70235 10.1773 6.95744C10.2622 7.21253 10.2954 7.48195 10.275 7.75C10.2924 8.27808 10.104 8.79226 9.74948 9.18406C9.395 9.57585 8.90218 9.81463 8.375 9.85C7.84782 9.81463 7.355 9.57585 7.00052 9.18406C6.64603 8.79226 6.45761 8.27808 6.475 7.75C6.45462 7.48195 6.48782 7.21253 6.57265 6.95744C6.65749 6.70235 6.79226 6.46671 6.96912 6.26426C7.14598 6.06181 7.36137 5.89659 7.60275 5.77825C7.84412 5.65991 8.10664 5.59082 8.375 5.575ZM17.3625 11.8875C18.1505 11.8582 18.895 11.5184 19.4336 10.9424C19.9722 10.3664 20.2611 9.60074 20.2375 8.8125C20.2645 8.02214 19.9771 7.25331 19.4381 6.67454C18.8992 6.09578 18.1528 5.75432 17.3625 5.725C16.5744 5.75754 15.8312 6.10041 15.2949 6.67881C14.7587 7.25722 14.4729 8.02422 14.5 8.8125C14.4763 9.59866 14.7636 10.3624 15.2995 10.9381C15.8354 11.5138 16.5767 11.8549 17.3625 11.8875ZM17.3625 7.2875C17.7373 7.31943 18.0847 7.49699 18.33 7.7821C18.5754 8.0672 18.6993 8.43713 18.675 8.8125C18.6959 9.18579 18.5705 9.55252 18.3255 9.8349C18.0804 10.1173 17.735 10.2931 17.3625 10.325C16.9878 10.2962 16.6392 10.1217 16.3915 9.83897C16.1439 9.55626 16.0168 9.18778 16.0375 8.8125C16.0134 8.43513 16.1389 8.06345 16.3869 7.778C16.635 7.49255 16.9855 7.31632 17.3625 7.2875ZM17.275 13.45C16.5331 13.4476 15.8008 13.6166 15.1351 13.9441C14.4694 14.2715 13.8884 14.7484 13.4375 15.3375C12.8218 14.5928 12.0481 13.9945 11.1724 13.5858C10.2968 13.1772 9.34125 12.9686 8.375 12.975C6.73415 12.9411 5.14582 13.554 3.95303 14.6813C2.76025 15.8086 2.05873 17.3599 2 19H3.5625C3.61131 17.7709 4.14515 16.6112 5.04712 15.7748C5.94909 14.9385 7.14571 14.4935 8.375 14.5375C9.60306 14.4936 10.7983 14.9389 11.6983 15.7756C12.5983 16.6123 13.1294 17.772 13.175 19H14.7375C14.7412 18.2767 14.6054 17.5594 14.3375 16.8875C14.591 16.3226 15.0041 15.8441 15.526 15.511C16.0479 15.1778 16.6559 15.0046 17.275 15.0125C18.0799 14.982 18.8642 15.2711 19.4567 15.8168C20.0492 16.3624 20.4018 17.1203 20.4375 17.925V19H22V17.925C21.964 16.706 21.4467 15.5508 20.5612 14.7122C19.6758 13.8735 18.4942 13.4197 17.275 13.45Z" fill="black"/>
</svg>
